<?xml version="1.0" standalone="no"?>
<!DOCTYPE svg PUBLIC "-//W3C//DTD SVG 20010904//EN"
 "http://www.w3.org/TR/2001/REC-SVG-20010904/DTD/svg10.dtd">
<svg version="1.0" xmlns="http://www.w3.org/2000/svg"
 width="1067.000000pt" height="1067.000000pt" viewBox="0 0 1067.000000 1067.000000"
 preserveAspectRatio="xMidYMid meet">
<metadata>
Created by potrace 1.11, written by Peter Selinger 2001-2013
</metadata>
<g transform="translate(0.000000,1067.000000) scale(0.100000,-0.100000)"
fill="#000000" stroke="none">
<path d="M6854 7418 c3 -13 6 -33 6 -45 0 -27 17 -31 23 -5 3 17 -18 72 -29
72 -4 0 -4 -10 0 -22z"/>
<path d="M6915 7415 c-16 -7 -23 -14 -15 -14 8 0 26 6 40 14 32 18 14 18 -25
0z"/>
<path d="M7478 7373 c-2 -16 -9 -27 -15 -26 -9 2 -11 -7 -6 -30 7 -37 13 -48
13 -24 0 10 4 17 9 17 15 0 42 -31 36 -41 -4 -5 -1 -9 6 -9 7 0 21 -7 31 -17
17 -15 18 -15 18 11 0 23 -3 26 -20 21 -21 -7 -28 10 -7 18 9 4 9 6 0 6 -7 1
-10 8 -6 16 4 13 0 15 -21 11 -22 -4 -26 -1 -26 19 0 13 5 27 10 30 15 9 12
25 -4 25 -9 0 -16 -12 -18 -27z"/>
<path d="M6489 7334 c4 -16 6 -35 4 -41 -3 -7 1 -13 7 -13 14 0 6 58 -10 74
-6 6 -7 -1 -1 -20z"/>
<path d="M6829 7338 c15 -21 31 -23 31 -6 0 6 -3 8 -7 5 -3 -4 -13 -1 -22 6
-14 11 -14 10 -2 -5z"/>
<path d="M7602 7320 c0 -14 2 -19 5 -12 2 6 2 18 0 25 -3 6 -5 1 -5 -13z"/>
<path d="M7274 7313 c4 -24 -9 -32 -16 -11 -3 7 -7 6 -11 -5 -5 -13 -1 -17 18
-17 15 0 26 -7 30 -21 6 -18 28 -24 26 -6 -1 4 -1 16 -1 27 0 12 -5 17 -13 14
-8 -3 -19 5 -26 18 l-12 23 5 -22z"/>
<path d="M7123 7300 c-4 -15 -14 -20 -39 -20 -24 0 -37 -6 -41 -17 -6 -15 -8
-14 -14 7 l-7 25 -1 -25 c-1 -14 -8 -38 -16 -55 -11 -24 -14 -26 -15 -10 -1
11 -4 14 -7 8 -2 -7 -13 -13 -24 -13 -11 0 -22 -7 -25 -15 -8 -20 -24 -19 -24
1 0 24 -33 12 -40 -15 -4 -19 -7 -21 -16 -10 -7 8 -15 25 -19 39 -7 23 -9 21
-19 -20 -10 -41 -9 -46 9 -51 11 -4 30 -4 42 -2 27 6 54 -34 29 -43 -8 -3 -19
-3 -24 0 -13 8 -8 -30 6 -47 7 -7 8 -17 4 -22 -4 -4 0 -5 8 -3 8 3 14 11 13
17 -4 14 10 14 24 0 6 -6 20 -8 31 -5 15 5 18 12 14 29 -3 12 -7 16 -10 9 -2
-6 -7 -12 -12 -12 -10 0 -53 90 -46 98 3 3 25 5 48 6 l43 1 0 -40 c0 -22 5
-43 10 -47 6 -5 4 -12 -5 -19 -12 -8 -8 -9 15 -5 17 3 24 3 17 0 -6 -3 -10
-10 -6 -15 3 -5 13 -5 25 1 10 6 19 9 20 8 0 -2 3 -18 5 -35 4 -26 1 -33 -11
-33 -9 0 -15 -6 -12 -12 5 -17 38 -11 53 9 12 18 64 11 64 -8 0 -6 -10 -8 -22
-4 -21 6 -22 5 -5 -8 9 -8 17 -26 17 -41 0 -16 4 -25 10 -21 6 3 10 14 10 24
0 10 7 25 16 32 14 12 14 14 -3 20 -17 7 -17 7 1 14 21 9 37 -10 28 -33 -4
-12 1 -14 21 -10 16 3 28 0 31 -8 7 -19 -12 -28 -29 -14 -8 6 -16 7 -19 2 -3
-6 9 -17 28 -26 42 -20 46 -20 46 -1 0 8 5 24 12 35 10 16 9 24 -10 49 -27 37
-27 45 0 71 25 23 55 25 81 6 23 -17 22 -24 -5 -29 -16 -3 -12 -5 12 -6 31 -1
33 -3 15 -13 -30 -16 -30 -16 -6 -37 12 -10 17 -21 12 -23 -6 -1 5 -17 24 -34
20 -17 38 -27 41 -22 3 5 12 7 20 4 8 -3 14 -1 14 4 0 6 -6 10 -14 10 -15 0
-56 58 -56 79 0 6 7 11 15 11 19 0 19 9 0 34 -22 29 -19 48 8 44 17 -2 23 3
25 22 3 21 2 22 -12 11 -8 -7 -20 -9 -27 -5 -7 4 -19 -3 -30 -17 l-19 -24 10
34 c5 19 7 38 4 42 -3 5 -1 17 5 26 10 20 -7 53 -27 53 -6 0 -14 10 -17 21 -9
28 -24 7 -18 -25 4 -17 -1 -25 -17 -29 -17 -4 -24 0 -32 24 -12 35 -26 37 -34
5 l-6 -24 -34 20 c-33 19 -38 28 -35 55 1 8 -5 10 -14 7 -9 -4 -14 -13 -11
-20 3 -9 -1 -11 -12 -7 -9 3 -2 -7 16 -22 35 -29 40 -51 17 -81 -20 -27 -18
-35 8 -29 23 6 98 -14 100 -28 1 -4 -16 -18 -38 -31 -35 -21 -43 -22 -58 -11
-10 7 -20 22 -21 32 -2 10 -6 17 -9 15 -29 -12 -39 -13 -53 -1 -8 7 -13 21
-11 30 7 24 -40 56 -62 42 -9 -5 -22 -8 -28 -6 -24 8 -13 21 22 27 19 4 35 13
35 20 0 7 14 22 30 34 19 15 30 31 30 48 0 16 8 28 23 34 21 8 21 9 -6 9 -21
1 -30 -5 -34 -19z m-63 -220 c0 -5 -4 -10 -9 -10 -6 0 -13 5 -16 10 -3 6 1 10
9 10 9 0 16 -4 16 -10z m58 -37 c0 -5 2 -16 7 -26 6 -15 10 -16 17 -5 8 11 10
11 15 -1 4 -9 8 -10 12 -3 4 7 12 8 21 2 13 -8 12 -10 -2 -10 -10 0 -18 -4
-18 -9 0 -12 -57 6 -66 20 -6 11 2 39 11 39 3 0 4 -3 3 -7z m147 -83 c3 -5 1
-10 -4 -10 -6 0 -11 5 -11 10 0 6 2 10 4 10 3 0 8 -4 11 -10z"/>
<path d="M7655 7310 c-3 -5 -2 -17 3 -26 16 -28 2 -56 -24 -51 -29 5 -30 -3
-4 -33 24 -28 27 -70 5 -70 -12 0 -15 -11 -13 -55 3 -53 10 -66 24 -44 3 6 14
9 24 6 18 -5 37 19 25 31 -3 3 -5 0 -5 -8 0 -10 -3 -10 -15 0 -14 11 -13 17 5
47 24 41 25 59 5 79 -11 11 -15 12 -15 3 0 -7 -2 -10 -5 -7 -11 11 8 58 34 85
14 16 22 25 17 21 -16 -13 -29 -9 -23 6 4 10 0 12 -15 8 -14 -3 -19 -1 -14 6
4 7 5 12 2 12 -3 0 -8 -4 -11 -10z"/>
<path d="M7210 7300 c0 -5 5 -10 10 -10 6 0 10 5 10 10 0 6 -4 10 -10 10 -5 0
-10 -4 -10 -10z"/>
<path d="M7770 7205 c-7 -14 -11 -28 -8 -31 3 -3 13 9 21 25 18 37 6 42 -13 6z"/>
<path d="M7456 7184 c-6 -24 -2 -43 8 -33 11 10 17 59 8 59 -5 0 -13 -12 -16
-26z"/>
<path d="M7769 7143 c-1 -10 -1 -21 -1 -24 1 -4 -3 -21 -8 -37 -6 -22 -5 -34
5 -42 10 -8 18 -2 34 25 11 19 16 35 11 35 -4 0 -11 14 -15 30 -7 33 -24 41
-26 13z"/>
<path d="M6431 7141 c-7 -5 -11 -15 -9 -22 3 -10 8 -7 17 9 13 24 12 26 -8 13z"/>
<path d="M6700 7131 c0 -34 25 -45 60 -25 16 10 30 24 30 31 0 18 -10 16 -25
-4 -12 -16 -14 -16 -29 0 -23 22 -36 22 -36 -2z"/>
<path d="M6630 7103 c0 -21 3 -24 9 -14 5 8 7 20 4 28 -8 21 -13 15 -13 -14z"/>
<path d="M6660 7110 c0 -5 7 -10 16 -10 8 0 12 5 9 10 -3 6 -10 10 -16 10 -5
0 -9 -4 -9 -10z"/>
<path d="M6569 7095 c-1 -11 -1 -26 0 -34 2 -7 -2 -11 -6 -8 -5 3 -9 -11 -8
-32 0 -38 0 -38 35 -34 26 4 41 -1 57 -16 14 -13 28 -18 39 -14 13 5 16 3 11
-9 -4 -11 1 -18 14 -21 16 -4 18 -3 9 8 -8 9 -6 14 5 19 26 10 8 23 -25 18
-25 -4 -30 -1 -30 16 0 24 -16 37 -25 22 -3 -5 -22 -10 -41 -10 -41 0 -45 18
-9 54 27 27 32 40 13 33 -7 -2 -18 3 -25 12 -11 14 -13 14 -14 -4z"/>
<path d="M6291 7084 c0 -11 -2 -34 -4 -52 -3 -26 0 -32 12 -29 9 2 14 10 12
18 -2 8 -4 26 -5 41 -2 31 -15 49 -15 22z"/>
<path d="M6411 7084 c0 -11 3 -14 6 -6 3 7 2 16 -1 19 -3 4 -6 -2 -5 -13z"/>
<path d="M6740 7065 c8 -9 10 -29 7 -49 -4 -27 -2 -33 11 -32 9 0 18 -8 20
-18 3 -15 0 -17 -14 -12 -16 5 -15 3 3 -13 12 -10 19 -22 15 -26 -4 -5 -1 -5
6 -1 10 6 10 11 2 21 -8 10 -8 15 0 20 7 4 10 16 7 26 -3 10 0 20 7 22 6 3 -1
8 -16 12 -16 4 -28 12 -28 17 0 6 8 7 17 4 13 -5 11 0 -6 18 -26 28 -52 37
-31 11z"/>
<path d="M7836 7055 c-3 -8 -1 -15 4 -15 6 0 10 7 10 15 0 8 -2 15 -4 15 -2 0
-6 -7 -10 -15z"/>
<path d="M5335 7040 c4 -6 11 -8 16 -5 14 9 11 15 -7 15 -8 0 -12 -5 -9 -10z"/>
<path d="M7503 7036 c5 -12 2 -23 -10 -31 -15 -11 -15 -15 5 -49 12 -21 22
-44 22 -53 0 -13 3 -13 16 -2 14 12 14 14 0 25 -13 9 -15 21 -10 52 5 32 3 45
-12 59 -17 17 -18 17 -11 -1z"/>
<path d="M7887 7036 c-4 -10 -13 -13 -23 -9 -14 5 -16 3 -11 -11 4 -10 7 -25
7 -34 1 -9 10 0 21 21 11 22 18 41 16 43 -3 3 -7 -2 -10 -10z"/>
<path d="M6987 7023 c-13 -13 -7 -21 13 -16 11 3 20 9 20 14 0 10 -24 12 -33
2z"/>
<path d="M5370 7016 c0 -2 7 -6 15 -10 8 -3 15 -1 15 4 0 6 -7 10 -15 10 -8 0
-15 -2 -15 -4z"/>
<path d="M5411 7004 c0 -11 3 -14 6 -6 3 7 2 16 -1 19 -3 4 -6 -2 -5 -13z"/>
<path d="M5810 7010 c0 -6 3 -10 8 -10 4 0 31 -18 60 -40 57 -44 63 -45 30 -8
-27 29 -98 71 -98 58z"/>
<path d="M8186 7003 c-6 -14 -5 -15 5 -6 7 7 10 15 7 18 -3 3 -9 -2 -12 -12z"/>
<path d="M7722 6986 c-11 -24 -30 -32 -68 -27 -13 1 -40 -86 -30 -96 3 -3 14
1 24 10 10 10 32 17 48 17 21 0 25 3 14 9 -8 6 -18 7 -22 5 -19 -12 -5 9 32
47 39 40 50 56 31 45 -5 -4 -11 -1 -13 5 -2 6 -9 0 -16 -15z"/>
<path d="M6920 6990 c-11 -7 -5 -9 22 -7 20 1 34 5 31 10 -6 10 -35 9 -53 -3z"/>
<path d="M7025 6991 c-3 -6 3 -9 14 -8 11 0 17 5 15 9 -7 11 -22 10 -29 -1z"/>
<path d="M6150 6978 c0 -9 5 -20 11 -23 17 -11 18 -2 3 19 -12 17 -14 17 -14
4z"/>
<path d="M8340 6970 c-7 -14 -7 -20 0 -20 5 0 19 9 30 20 20 20 20 20 0 20
-10 0 -24 -9 -30 -20z"/>
<path d="M6823 6969 c9 -6 17 -17 17 -25 0 -11 4 -12 19 -4 11 5 28 7 38 4 17
-6 17 -6 1 11 -9 10 -34 19 -55 21 -29 2 -34 0 -20 -7z m47 -9 c0 -5 -4 -10
-10 -10 -5 0 -10 5 -10 10 0 6 5 10 10 10 6 0 10 -4 10 -10z"/>
<path d="M6990 6965 c0 -8 5 -15 10 -15 6 0 10 7 10 15 0 8 -4 15 -10 15 -5 0
-10 -7 -10 -15z"/>
<path d="M7964 6954 c3 -9 6 -18 6 -21 0 -3 7 0 15 7 8 7 15 18 15 24 0 6 -5
4 -10 -4 -6 -10 -10 -11 -10 -2 0 6 -5 12 -11 12 -6 0 -8 -7 -5 -16z"/>
<path d="M6929 6958 c0 -2 -2 -14 -5 -28 -3 -23 -3 -24 8 -5 6 11 16 23 22 27
7 5 4 8 -6 8 -10 0 -18 -1 -19 -2z"/>
<path d="M7841 6953 c-1 -7 -4 -12 -8 -11 -14 3 -43 -14 -43 -25 0 -6 -18 -32
-40 -58 -36 -42 -53 -89 -32 -89 4 0 26 26 49 58 24 31 52 69 64 83 12 15 19
33 16 40 -4 10 -6 10 -6 2z"/>
<path d="M6506 6941 c-4 -6 -2 -11 3 -11 6 0 11 -7 11 -15 0 -18 8 -18 40 0
23 12 23 14 6 21 -11 4 -21 2 -26 -6 -6 -9 -10 -8 -17 5 -7 12 -13 14 -17 6z"/>
<path d="M7000 6922 c-18 -18 -20 -24 -7 -19 9 3 17 2 17 -2 0 -13 -28 -22
-35 -11 -8 13 -35 1 -35 -15 0 -9 -8 -11 -22 -8 -13 3 -20 2 -16 -2 4 -4 3
-16 -2 -26 -13 -23 3 -34 29 -19 13 6 22 6 26 0 3 -5 12 -7 20 -4 9 4 12 0 8
-14 -2 -11 0 -23 6 -26 6 -4 11 0 11 8 0 21 16 20 24 0 4 -9 9 -15 12 -12 2 3
0 17 -5 31 -10 26 1 47 14 27 4 -6 10 -8 15 -5 5 3 13 -3 19 -12 6 -11 11 -13
11 -5 0 7 -7 20 -15 28 -22 22 -19 37 4 24 26 -13 31 -13 31 5 0 9 6 12 18 8
9 -3 13 -2 9 2 -4 5 -23 8 -42 7 -35 -3 -48 14 -20 24 8 4 12 10 10 15 -11 16
-44 -29 -39 -53 4 -16 0 -13 -15 12 -14 25 -16 39 -9 48 21 25 2 20 -22 -6z"/>
<path d="M6641 6924 c0 -11 3 -14 6 -6 3 7 2 16 -1 19 -3 4 -6 -2 -5 -13z"/>
<path d="M6946 6924 c-8 -21 -8 -24 3 -24 12 0 22 28 12 35 -5 3 -12 -2 -15
-11z"/>
<path d="M6877 6888 c-10 -11 -16 -23 -12 -26 4 -4 11 1 16 11 6 9 17 17 25
17 8 0 12 5 9 10 -9 14 -17 11 -38 -12z"/>
<path d="M6121 6864 c0 -11 3 -14 6 -6 3 7 2 16 -1 19 -3 4 -6 -2 -5 -13z"/>
<path d="M7224 6865 c11 -8 24 -15 30 -15 5 0 19 -9 30 -19 14 -13 41 -21 84
-25 79 -6 72 7 -15 29 -38 9 -77 21 -88 25 -11 5 -29 11 -40 14 -20 6 -20 6
-1 -9z"/>
<path d="M7443 6860 c19 -28 23 -50 5 -32 -25 25 -36 11 -12 -15 21 -23 27
-25 34 -13 17 27 11 42 -25 70 -19 15 -19 14 -2 -10z"/>
<path d="M6486 6854 c-8 -22 -7 -34 3 -34 5 0 11 11 13 25 6 28 -6 34 -16 9z"/>
<path d="M5540 6856 c0 -2 8 -10 18 -17 15 -13 16 -12 3 4 -13 16 -21 21 -21
13z"/>
<path d="M6340 6850 c0 -5 9 -24 20 -42 24 -39 26 -34 5 16 -15 35 -25 46 -25
26z"/>
<path d="M6080 6835 c0 -5 5 -17 10 -25 5 -8 10 -10 10 -5 0 6 -5 17 -10 25
-5 8 -10 11 -10 5z"/>
<path d="M7942 6832 c-44 -4 -69 -27 -94 -85 -11 -26 -36 -60 -54 -77 -54 -47
-44 -61 20 -31 30 13 53 28 50 32 -2 5 5 13 16 19 11 6 19 18 18 27 -2 10 16
30 42 50 74 56 87 66 69 60 -9 -3 -20 -2 -25 1 -5 4 -24 6 -42 4z"/>
<path d="M6235 6810 c-3 -6 1 -7 9 -4 18 7 21 14 7 14 -6 0 -13 -4 -16 -10z"/>
<path d="M6760 6804 c0 -8 5 -12 10 -9 6 3 10 10 10 16 0 5 -4 9 -10 9 -5 0
-10 -7 -10 -16z"/>
<path d="M6695 6800 c-3 -6 1 -7 9 -4 18 7 21 14 7 14 -6 0 -13 -4 -16 -10z"/>
<path d="M7231 6793 c-1 -17 16 -25 25 -12 4 7 3 9 -4 5 -5 -3 -13 0 -15 6 -4
9 -6 10 -6 1z"/>
<path d="M7598 6770 c-16 -16 -28 -34 -28 -40 0 -6 -4 -9 -9 -5 -5 3 -13 0
-16 -5 -5 -7 -12 -5 -21 7 -11 15 -14 15 -15 3 -1 -8 -1 -21 0 -28 2 -10 -5
-12 -21 -8 -13 4 -5 -2 16 -14 37 -19 40 -19 53 -2 25 32 34 52 27 64 -4 6 -3
8 3 5 6 -4 18 4 27 18 13 20 22 24 41 19 14 -3 25 -2 25 2 0 22 -56 11 -82
-16z"/>
<path d="M6580 6774 c0 -8 5 -12 10 -9 6 3 10 10 10 16 0 5 -4 9 -10 9 -5 0
-10 -7 -10 -16z"/>
<path d="M7310 6770 c-9 -6 -10 -10 -3 -10 6 0 15 5 18 10 8 12 4 12 -15 0z"/>
<path d="M6675 6750 c-3 -6 1 -7 9 -4 18 7 21 14 7 14 -6 0 -13 -4 -16 -10z"/>
<path d="M6071 6700 c30 -49 53 -69 66 -57 3 3 -2 13 -11 22 -9 9 -16 24 -16
34 0 15 -13 25 -63 49 -4 2 6 -19 24 -48z"/>
<path d="M6560 6739 c0 -5 5 -7 10 -4 6 3 10 8 10 11 0 2 -4 4 -10 4 -5 0 -10
-5 -10 -11z"/>
<path d="M5686 6732 c-3 -5 13 -13 35 -19 47 -12 49 -9 9 12 -34 17 -37 18
-44 7z"/>
<path d="M6332 6708 c8 -12 25 -28 39 -37 18 -11 16 -6 -10 22 -39 42 -50 48
-29 15z"/>
<path d="M7735 6719 c-4 -5 -12 -8 -18 -6 -18 6 -34 -22 -29 -49 4 -23 5 -23
26 9 32 48 38 57 32 57 -3 0 -8 -5 -11 -11z"/>
<path d="M8070 6722 c-8 -4 -30 -18 -48 -32 -28 -20 -32 -30 -30 -61 1 -21 6
-35 11 -32 4 3 6 11 3 18 -3 8 -2 15 2 17 4 2 27 25 52 51 42 44 44 54 10 39z"/>
<path d="M5525 6703 c6 -4 16 -20 22 -35 10 -23 19 -28 49 -28 42 0 42 17 -2
41 -32 18 -85 35 -69 22z"/>
<path d="M6228 6693 c-16 -17 -15 -20 14 -53 17 -19 35 -34 41 -32 6 2 4 -4
-3 -13 -11 -13 -15 -13 -21 -3 -6 9 -9 9 -9 1 0 -21 21 -25 41 -7 25 23 24 36
-7 65 -14 13 -29 32 -33 42 -7 17 -7 17 -23 0z"/>
<path d="M8455 6700 c-3 -5 -2 -10 4 -10 5 0 13 5 16 10 3 6 2 10 -4 10 -5 0
-13 -4 -16 -10z"/>
<path d="M6640 6685 c-11 -13 -10 -14 4 -9 9 3 16 10 16 15 0 13 -6 11 -20 -6z"/>
<path d="M8431 6684 c0 -11 3 -14 6 -6 3 7 2 16 -1 19 -3 4 -6 -2 -5 -13z"/>
<path d="M7425 6680 c-3 -5 1 -10 9 -10 8 0 18 5 21 10 3 6 -1 10 -9 10 -8 0
-18 -4 -21 -10z"/>
<path d="M8278 6673 c-16 -7 -43 -22 -59 -33 -16 -12 -32 -19 -36 -17 -5 3
-22 -6 -38 -19 l-30 -24 35 7 c43 8 195 77 204 92 9 14 -36 11 -76 -6z"/>
<path d="M7390 6650 c-9 -6 -10 -10 -3 -10 6 0 15 5 18 10 8 12 4 12 -15 0z"/>
<path d="M7544 6635 c-4 -8 -12 -15 -20 -15 -19 0 -18 -17 3 -24 19 -8 34 11
25 32 -4 11 -1 13 8 7 9 -5 11 -4 6 3 -10 16 -15 15 -22 -3z"/>
<path d="M5478 6608 c12 -12 25 -18 29 -14 4 4 -1 14 -11 22 -31 22 -43 17
-18 -8z"/>
<path d="M7435 6595 c0 -19 4 -24 15 -19 8 3 23 9 33 11 23 7 22 23 -2 23 -11
0 -25 2 -33 5 -9 4 -13 -3 -13 -20z"/>
<path d="M7700 6569 c0 -11 -9 -34 -21 -50 l-21 -29 30 2 c26 2 29 5 25 29 -2
16 2 33 12 42 20 21 19 27 -5 27 -14 0 -20 -7 -20 -21z"/>
<path d="M7386 6563 c-6 -14 -5 -15 5 -6 7 7 10 15 7 18 -3 3 -9 -2 -12 -12z"/>
<path d="M6336 6562 c-3 -6 1 -18 10 -26 18 -19 11 -21 -18 -5 -11 6 -19 7
-16 2 29 -61 31 -63 44 -45 8 10 13 12 14 5 0 -7 7 -13 16 -13 14 0 91 -40
122 -63 7 -6 37 -11 65 -12 29 -1 44 0 35 2 -21 5 -24 23 -5 24 6 0 -8 9 -32
20 -26 12 -47 16 -50 10 -10 -16 -140 52 -160 83 -10 15 -21 23 -25 18z"/>
<path d="M8090 6560 c0 -5 5 -10 10 -10 6 0 10 5 10 10 0 6 -4 10 -10 10 -5 0
-10 -4 -10 -10z"/>
<path d="M5738 6541 c13 -11 22 -23 20 -27 -2 -3 13 -8 32 -9 33 -2 34 -2 10
9 -14 6 -29 16 -35 22 -5 6 -19 14 -30 18 -18 5 -18 4 3 -13z"/>
<path d="M7650 6550 c0 -5 5 -10 11 -10 5 0 7 5 4 10 -3 6 -8 10 -11 10 -2 0
-4 -4 -4 -10z"/>
<path d="M7993 6538 c-31 -22 -44 -48 -23 -48 6 0 10 7 10 15 0 8 3 15 8 15
11 1 58 40 47 40 -6 0 -25 -10 -42 -22z"/>
<path d="M6050 6539 c0 -5 8 -12 18 -16 46 -16 132 -57 132 -63 0 -3 11 -13
25 -20 13 -7 22 -18 18 -23 -3 -6 -1 -7 5 -3 7 4 7 17 0 44 -10 36 -23 52 -43
52 -5 0 -3 -5 5 -10 11 -7 8 -10 -16 -10 -17 0 -33 3 -37 6 -15 15 -107 52
-107 43z"/>
<path d="M6100 6545 c0 -5 68 -35 79 -35 8 1 -61 39 -71 40 -5 0 -8 -2 -8 -5z"/>
<path d="M6660 6501 c0 -5 5 -13 10 -16 6 -3 10 -2 10 4 0 5 -4 13 -10 16 -5
3 -10 2 -10 -4z"/>
<path d="M7493 6503 c-15 -5 -18 -33 -4 -33 5 0 11 9 14 20 3 11 4 20 4 19 -1
0 -8 -3 -14 -6z"/>
<path d="M7753 6483 c-26 -3 -43 -9 -43 -17 0 -16 65 -9 81 10 6 8 10 13 8 12
-2 -1 -23 -3 -46 -5z"/>
<path d="M5710 6460 c24 -15 3 -23 -31 -11 -48 16 -48 5 0 -16 22 -10 41 -21
41 -25 0 -5 10 -8 22 -8 17 0 19 3 10 12 -7 7 -12 20 -12 29 0 9 -7 20 -16 23
-23 9 -31 7 -14 -4z"/>
<path d="M8026 6449 c-16 -10 -58 -25 -93 -35 -38 -10 -63 -22 -63 -31 0 -11
5 -11 30 2 40 21 60 19 60 -5 0 -11 2 -20 5 -20 6 0 106 68 115 77 3 3 -5 1
-17 -6 -35 -18 -50 -12 -23 9 33 25 23 32 -14 9z"/>
<path d="M6780 6435 c13 -14 26 -25 28 -25 3 0 -5 11 -18 25 -13 14 -26 25
-28 25 -3 0 5 -11 18 -25z"/>
<path d="M7596 6441 c-11 -12 -24 -21 -31 -21 -6 0 -22 -14 -34 -31 -27 -37
-102 -73 -148 -71 -31 1 -33 0 -33 -34 0 -32 -2 -35 -22 -29 l-23 7 22 -17
c18 -12 27 -13 43 -5 11 6 25 8 30 5 6 -4 13 1 16 9 3 9 15 16 25 16 13 0 19
7 19 24 0 24 17 36 58 42 34 4 55 24 42 39 -12 14 27 35 67 35 23 0 25 2 11
13 -9 6 -17 18 -20 25 -2 10 -9 8 -22 -7z"/>
<path d="M7880 6425 c-17 -10 -20 -14 -9 -15 9 0 22 7 29 15 15 18 12 18 -20
0z"/>
<path d="M7452 6418 c-5 -7 -13 -24 -17 -38 -4 -14 -15 -30 -24 -37 -22 -17
-6 -16 28 1 40 21 58 45 42 56 -8 4 -10 13 -7 19 10 15 -9 14 -22 -1z"/>
<path d="M6156 6375 c-3 -9 -2 -13 4 -10 6 3 10 1 10 -4 0 -6 15 -11 33 -11
17 -1 50 -8 72 -16 22 -9 60 -22 85 -29 25 -8 39 -14 32 -14 -7 -1 -10 -5 -7
-11 10 -16 22 -12 28 10 4 15 -2 25 -21 37 -15 9 -33 24 -41 32 -12 14 -13 14
-8 -1 8 -22 -3 -22 -51 -2 -20 9 -50 17 -66 19 -15 3 -36 7 -46 10 -11 3 -20
-1 -24 -10z"/>
<path d="M6290 6386 c0 -2 9 -6 20 -9 11 -3 18 -1 14 4 -5 9 -34 13 -34 5z"/>
<path d="M6517 6379 c7 -7 15 -10 18 -7 3 3 -2 9 -12 12 -14 6 -15 5 -6 -5z"/>
<path d="M6990 6379 c0 -14 31 -31 45 -25 27 10 17 31 -15 31 -16 0 -30 -3
-30 -6z"/>
<path d="M8000 6350 c-25 -8 -25 -8 -3 -15 29 -9 31 -9 49 10 14 13 14 15 -3
14 -10 -1 -29 -5 -43 -9z"/>
<path d="M6620 6310 c55 -49 106 -73 130 -60 33 18 23 1 -12 -20 -18 -11 -31
-20 -28 -21 48 -6 122 -13 147 -13 19 0 35 -6 40 -16 6 -12 15 -15 33 -9 16 4
19 7 8 8 -10 1 -18 5 -18 9 0 9 71 47 82 44 4 -1 5 4 2 11 -3 8 -16 12 -32 9
-15 -2 -55 5 -87 16 -51 17 -68 18 -116 10 -51 -10 -60 -9 -85 9 -16 11 -45
28 -64 37 l-35 17 35 -31z"/>
<path d="M6840 6329 c0 -5 5 -7 10 -4 6 3 10 8 10 11 0 2 -4 4 -10 4 -5 0 -10
-5 -10 -11z"/>
<path d="M5850 6318 c0 -20 48 -60 61 -52 7 4 9 3 6 -3 -4 -6 0 -16 8 -23 8
-7 15 -20 15 -29 0 -14 2 -14 10 -1 8 12 10 11 10 -7 0 -16 8 -25 26 -29 14
-4 22 -10 17 -15 -10 -10 -172 29 -253 61 -35 14 -56 18 -58 11 -2 -6 -9 -8
-14 -5 -7 5 -8 2 -4 -5 5 -7 14 -10 22 -7 7 3 11 0 8 -7 -4 -11 7 -15 54 -19
43 -4 -20 -30 -105 -43 -70 -11 -128 -38 -130 -60 -2 -23 16 -38 32 -26 5 5
24 11 40 15 17 4 38 9 49 13 13 4 16 2 11 -8 -6 -9 -2 -10 16 -5 13 4 37 7 53
7 24 -1 28 2 23 18 -4 17 5 22 58 36 63 17 135 14 105 -5 -11 -7 -11 -11 2
-23 14 -14 23 -14 84 -1 38 8 72 14 76 14 5 0 8 9 8 19 0 14 5 18 20 14 11 -3
17 -9 14 -14 -3 -5 4 -9 15 -9 11 0 23 -5 26 -10 4 -6 11 -8 16 -5 5 4 9 2 9
-3 0 -5 24 -21 53 -35 l52 -26 -35 -1 c-19 -1 -44 -5 -55 -9 -15 -6 -8 -9 30
-13 28 -3 58 -9 68 -13 32 -13 8 44 -37 88 -39 39 -117 76 -162 77 -62 1 -117
52 -101 94 4 10 -11 20 -50 35 -62 24 -93 27 -93 9z"/>
<path d="M7187 6320 c-32 -10 -59 -39 -49 -54 3 -5 -2 -7 -12 -3 -16 6 -56
-19 -56 -35 0 -23 58 2 108 46 13 11 33 21 45 21 13 0 22 6 22 15 0 18 -20 21
-58 10z"/>
<path d="M7260 6300 c0 -12 7 -20 16 -20 13 0 14 3 5 14 -10 12 -6 15 26 19
l38 4 -42 1 c-37 2 -43 -1 -43 -18z"/>
<path d="M7879 6293 c-11 -3 -15 -11 -12 -24 3 -11 -1 -27 -9 -37 -8 -9 -19
-24 -23 -32 -8 -13 -7 -13 9 -1 17 14 61 91 54 95 -2 1 -10 1 -19 -1z"/>
<path d="M6474 6272 c7 -20 4 -22 -26 -22 l-33 -1 25 -14 c38 -22 60 -19 60 9
0 13 -7 30 -16 37 -15 12 -16 11 -10 -9z"/>
<path d="M7628 6283 c6 -2 18 -2 25 0 6 3 1 5 -13 5 -14 0 -19 -2 -12 -5z"/>
<path d="M7710 6283 c-41 -12 -60 -28 -60 -50 0 -31 10 -29 50 12 34 35 37 46
10 38z"/>
<path d="M6010 6277 c0 -5 77 -47 85 -47 15 0 2 22 -17 29 -43 16 -68 22 -68
18z"/>
<path d="M7060 6270 c0 -5 5 -10 11 -10 5 0 7 5 4 10 -3 6 -8 10 -11 10 -2 0
-4 -4 -4 -10z"/>
<path d="M8029 6249 c-9 -17 -8 -23 2 -30 10 -6 15 -2 18 14 3 21 4 21 11 2 6
-17 7 -16 12 8 4 21 1 27 -13 27 -10 0 -23 -10 -30 -21z"/>
<path d="M6225 6250 c-23 -6 -25 -8 -8 -9 12 0 26 -7 30 -14 11 -18 47 -31 39
-15 -3 7 -9 21 -12 31 -4 9 -9 16 -13 16 -3 -1 -19 -5 -36 -9z"/>
<path d="M7027 6249 c7 -7 15 -10 18 -7 3 3 -2 9 -12 12 -14 6 -15 5 -6 -5z"/>
<path d="M6635 6230 c-3 -5 -17 -10 -31 -10 -15 0 -24 -6 -24 -15 0 -8 1 -15
3 -15 1 1 34 12 72 25 70 24 70 24 28 24 -23 1 -45 -3 -48 -9z"/>
<path d="M7310 6220 c-9 -6 -10 -10 -3 -10 6 0 15 5 18 10 8 12 4 12 -15 0z"/>
<path d="M7425 6158 l-40 -30 35 7 c57 12 77 22 77 39 0 24 -27 18 -72 -16z"/>
<path d="M7516 6182 c-6 -9 122 -7 131 2 4 3 -23 6 -60 6 -36 0 -68 -4 -71 -8z"/>
<path d="M6470 6171 c0 -12 62 -62 69 -55 3 3 -2 10 -12 15 -22 13 -13 29 16
29 12 0 29 5 37 10 11 7 -3 10 -47 10 -35 0 -63 -4 -63 -9z"/>
<path d="M6340 6151 l-35 -6 43 -13 c24 -7 46 -11 48 -9 6 6 -7 37 -15 36 -3
-1 -22 -4 -41 -8z"/>
<path d="M7098 6153 c-10 -2 -18 -9 -18 -14 0 -13 13 -11 36 6 19 14 14 17
-18 8z"/>
<path d="M7640 6142 c0 -11 -98 -53 -116 -50 -9 2 -19 -3 -22 -11 -3 -11 4
-12 34 -7 22 4 64 9 94 12 89 8 102 12 95 34 -4 14 0 20 17 23 17 3 15 5 -9 6
-25 1 -31 -2 -27 -14 4 -10 0 -15 -10 -15 -9 0 -19 7 -22 15 -6 15 -34 21 -34
7z"/>
<path d="M7276 6121 c-10 -11 -31 -23 -48 -26 -28 -7 -28 -8 -13 -25 9 -10 29
-24 45 -30 l29 -12 -29 -24 c-19 -17 -42 -25 -73 -26 -25 -1 -43 -6 -40 -11 2
-4 33 -5 68 -2 53 4 69 2 100 -16 20 -12 38 -19 41 -17 2 3 -7 30 -21 61 -19
43 -30 57 -46 57 -11 0 -30 5 -41 11 -20 11 -18 13 23 29 24 10 57 21 73 25
23 5 27 8 15 16 -24 15 -65 10 -83 -10z"/>
<path d="M7047 6116 c-4 -10 5 -16 30 -21 46 -8 52 0 14 19 -37 19 -38 19 -44
2z"/>
<path d="M6780 6110 c0 -5 7 -10 15 -10 8 0 25 -5 39 -12 l26 -11 -31 -23
c-17 -13 -44 -26 -60 -29 -16 -4 -43 -20 -60 -36 -17 -16 -42 -29 -56 -29 -32
0 -93 37 -93 56 0 8 -7 14 -16 14 -8 0 -12 5 -9 10 3 6 15 10 25 10 10 0 22 5
26 11 10 16 -17 29 -37 18 -28 -15 -93 -10 -119 8 -27 19 -87 26 -96 12 -3 -5
1 -6 9 -4 7 3 31 -8 52 -25 21 -16 47 -31 59 -31 11 -1 26 -2 31 -4 6 -1 16
-3 23 -3 27 -4 10 -22 -20 -22 -42 0 -55 -9 -63 -43 l-7 -27 58 1 c33 1 79 -3
104 -9 25 -6 86 -17 135 -25 50 -9 100 -18 113 -22 32 -10 28 11 -5 24 -32 13
-70 35 -81 45 -4 4 20 7 53 6 92 -3 92 -2 55 29 -19 16 -38 27 -42 24 -5 -2
-8 0 -8 5 0 5 20 13 45 16 39 6 74 26 45 26 -6 0 -9 4 -6 8 3 5 -15 18 -40 30
-49 24 -64 27 -64 12z"/>
<path d="M7404 6066 l-31 -32 34 11 c18 5 28 12 22 14 -7 2 -2 11 12 22 16 12
19 18 9 18 -8 0 -29 -15 -46 -33z"/>
<path d="M7093 6074 c-18 -8 -33 -18 -33 -22 0 -11 61 -2 78 10 6 6 12 14 12
19 0 12 -19 10 -57 -7z"/>
<path d="M7028 6033 c-10 -2 -18 -7 -18 -10 0 -3 8 -12 18 -19 15 -12 15 -13
0 -8 -20 7 -58 -12 -58 -29 0 -7 -20 -25 -45 -42 -46 -31 -49 -35 -39 -72 7
-24 5 -24 89 -4 22 5 56 9 77 8 l36 -2 12 57 c6 32 15 60 20 63 16 10 12 22
-12 37 -29 19 -58 27 -80 21z"/>
<path d="M5553 6007 c-51 -19 -51 -28 0 -11 26 9 47 18 47 20 0 6 -12 4 -47
-9z"/>
<path d="M6982 4710 c-12 -15 -48 -49 -81 -74 -64 -49 -89 -53 -168 -28 -36
12 -38 10 -47 -33 -6 -31 -49 -398 -66 -560 -5 -49 -14 -130 -19 -180 -6 -49
-19 -189 -31 -310 -54 -585 -110 -987 -185 -1325 -101 -452 -119 -636 -160
-1610 -8 -201 -18 -416 -21 -478 l-7 -112 164 0 164 0 12 26 c6 14 9 32 6 40
-3 7 0 28 6 46 9 24 8 33 -1 39 -8 5 -9 11 -1 21 5 7 9 51 9 98 -1 47 2 91 8
98 6 9 3 17 -10 27 -18 14 -18 16 -1 29 13 10 16 25 15 65 -2 31 -8 51 -15 51
-17 0 -27 40 -14 53 9 9 14 8 21 -3 8 -12 11 -13 22 -2 11 11 8 17 -14 35 -22
19 -25 25 -16 42 6 11 14 22 17 25 4 3 12 17 18 32 10 21 9 29 -3 39 -8 6 -12
20 -9 30 3 9 1 20 -5 24 -16 10 -12 34 11 63 12 16 16 28 10 30 -14 5 -14 39
0 48 11 7 8 55 -6 86 -5 13 -3 18 9 18 20 0 20 10 0 38 -8 13 -12 27 -7 35 4
6 9 44 10 82 3 87 8 128 17 144 4 6 2 18 -4 26 -7 8 -10 24 -7 34 3 11 -1 28
-9 39 -16 24 -9 32 28 32 30 0 30 2 12 71 -3 9 2 22 11 29 18 15 20 37 3 42
-7 3 -9 11 -3 24 4 10 7 23 6 27 0 4 4 18 11 30 16 28 20 65 8 72 -6 4 -4 14
3 26 10 16 9 21 -2 28 -11 7 -10 13 3 33 9 14 14 31 11 39 -2 8 0 21 5 29 9
13 11 13 20 0 8 -12 10 -11 10 7 0 12 -5 25 -10 28 -8 5 -7 11 1 21 9 11 8 18
-4 32 -20 22 -4 60 18 42 21 -18 28 6 11 40 -14 29 -14 30 8 30 29 0 39 10 26
25 -11 14 -9 83 4 103 5 8 2 20 -8 31 -21 23 -20 43 0 39 10 -2 18 5 20 17 10
57 11 81 2 93 -8 9 -5 12 12 12 19 0 21 2 9 16 -7 9 -9 18 -3 22 5 4 9 30 9
57 0 28 6 65 13 84 8 19 11 48 8 64 -5 22 -3 28 8 24 11 -4 14 13 16 81 1 48
3 105 5 127 1 22 -2 48 -7 58 -6 11 -5 17 2 17 7 0 9 8 5 19 -3 12 0 21 10 24
12 5 13 12 5 32 -13 34 -13 35 4 35 10 0 14 10 14 30 -1 17 -6 30 -12 30 -6 0
-5 4 3 9 9 6 10 11 2 15 -17 11 -13 36 4 30 11 -5 15 1 15 24 0 16 -7 35 -15
42 -21 18 -19 30 6 30 18 0 19 3 9 15 -9 11 -9 22 -1 47 8 21 8 35 1 42 -15
15 -12 29 5 22 16 -6 21 19 6 29 -6 3 -9 18 -7 33 1 15 -2 33 -7 40 -7 8 -4
18 7 31 10 11 14 25 10 36 -4 10 -1 20 6 25 11 7 11 11 0 25 -9 11 -10 19 -4
23 24 16 24 43 -1 54 -30 14 -31 18 -5 46 11 12 20 30 20 42 0 11 4 20 8 20 5
0 6 21 2 47 -8 50 -3 86 11 77 5 -3 9 2 9 10 0 8 -5 18 -10 21 -6 4 -7 13 -1
23 6 11 6 24 -1 35 -7 14 -5 22 9 32 10 9 13 14 6 15 -15 0 -18 60 -3 60 5 0
7 7 3 16 -5 13 -7 13 -14 2 -14 -22 -11 8 5 47 11 25 11 35 3 39 -7 2 -4 5 6
5 19 1 23 16 7 26 -8 5 -7 11 1 21 9 11 9 21 -1 44 -10 24 -10 32 3 45 12 11
17 12 20 2 4 -7 6 -8 6 -1 1 6 -5 17 -13 23 -10 9 -12 20 -6 41 6 20 4 34 -7
49 -12 18 -12 21 0 21 16 0 25 25 19 53 -2 9 -10 17 -18 17 -8 0 -14 5 -14 10
0 6 6 10 14 10 10 0 12 7 8 22 -4 16 -2 19 8 13 10 -6 12 -4 7 7 -3 9 -1 20 5
26 6 6 6 12 0 15 -5 4 -18 -7 -30 -23z m-12 -196 c0 -8 -5 -12 -10 -9 -6 4 -8
11 -5 16 9 14 15 11 15 -7z"/>
</g>
</svg>
